<svg width="79" height="39" viewBox="0 0 79 39" xmlns="http://www.w3.org/2000/svg">
<path d="M37.0433 8.20437C38.6204 11.6454 39.5 15.47 39.5 19.5C39.5 23.53 38.6204 27.3546 37.0433 30.7956C47.653 29.4471 55 24.2081 55 19.5C55 14.7919 47.653 9.55287 37.0433 8.20437ZM58.875 10.1109C62.9515 5.52287 69.9226 2.07412 78.25 0.733375V38.2627C69.9226 36.9259 62.9515 33.4771 58.875 28.8852C53.5856 34.845 43.4215 38.875 31.75 38.875C14.6302 38.875 0.75 30.1989 0.75 19.5C0.75 8.80112 14.6302 0.125 31.75 0.125C43.4215 0.125 53.5856 4.155 58.875 10.1109ZM70.5 27.25V11.75C66.0437 12.6412 62.75 15.7722 62.75 19.5C62.75 23.2277 66.0437 26.3587 70.5 27.25ZM8.5 19.5C8.5 24.4212 16.5484 29.947 27.999 30.9622C30.4435 27.6413 31.7583 23.6237 31.75 19.5C31.7583 15.3763 30.4435 11.3587 27.999 8.03775C16.5484 9.053 8.5 14.5787 8.5 19.5ZM20.125 23.375C19.0973 23.375 18.1117 22.9667 17.385 22.24C16.6583 21.5133 16.25 20.5277 16.25 19.5C16.25 18.4723 16.6583 17.4867 17.385 16.76C18.1117 16.0333 19.0973 15.625 20.125 15.625C21.1527 15.625 22.1383 16.0333 22.865 16.76C23.5917 17.4867 24 18.4723 24 19.5C24 20.5277 23.5917 21.5133 22.865 22.24C22.1383 22.9667 21.1527 23.375 20.125 23.375Z" fill="#219653"/>
</svg>
