<svg width="46" height="40" viewBox="0 0 46 40" fill="none" xmlns="http://www.w3.org/2000/svg">
<path d="M43.125 17.1429C43.9186 17.1429 44.5962 17.4219 45.1577 17.9799C45.7192 18.5379 46 19.2113 46 20C46 20.7887 45.7192 21.4621 45.1577 22.0201C44.5962 22.5781 43.9186 22.8571 43.125 22.8571H42.7881L40.2051 37.6339C40.0853 38.3185 39.7559 38.8839 39.2168 39.3304C38.6777 39.7768 38.0638 40 37.375 40H8.625C7.9362 40 7.32227 39.7768 6.7832 39.3304C6.24414 38.8839 5.91471 38.3185 5.79492 37.6339L3.21191 22.8571H2.875C2.08138 22.8571 1.40381 22.5781 0.842285 22.0201C0.280762 21.4621 0 20.7887 0 20C0 19.2113 0.280762 18.5379 0.842285 17.9799C1.40381 17.4219 2.08138 17.1429 2.875 17.1429H43.125ZM10.8936 35C11.2829 34.9702 11.6086 34.8028 11.8706 34.4978C12.1326 34.1927 12.2487 33.8467 12.2188 33.4598L11.5 24.1741C11.4701 23.7872 11.3016 23.4635 10.9946 23.2031C10.6877 22.9427 10.3395 22.8274 9.9502 22.8571C9.56087 22.8869 9.23519 23.0543 8.97314 23.3594C8.7111 23.6644 8.59505 24.0104 8.625 24.3973L9.34375 33.683C9.3737 34.0551 9.52718 34.3676 9.8042 34.6205C10.0812 34.8735 10.4069 35 10.7812 35H10.8936ZM20.125 33.5714V24.2857C20.125 23.8988 19.9827 23.564 19.6982 23.2812C19.4137 22.9985 19.0768 22.8571 18.6875 22.8571C18.2982 22.8571 17.9613 22.9985 17.6768 23.2812C17.3923 23.564 17.25 23.8988 17.25 24.2857V33.5714C17.25 33.9583 17.3923 34.2932 17.6768 34.5759C17.9613 34.8586 18.2982 35 18.6875 35C19.0768 35 19.4137 34.8586 19.6982 34.5759C19.9827 34.2932 20.125 33.9583 20.125 33.5714ZM28.75 33.5714V24.2857C28.75 23.8988 28.6077 23.564 28.3232 23.2812C28.0387 22.9985 27.7018 22.8571 27.3125 22.8571C26.9232 22.8571 26.5863 22.9985 26.3018 23.2812C26.0173 23.564 25.875 23.8988 25.875 24.2857V33.5714C25.875 33.9583 26.0173 34.2932 26.3018 34.5759C26.5863 34.8586 26.9232 35 27.3125 35C27.7018 35 28.0387 34.8586 28.3232 34.5759C28.6077 34.2932 28.75 33.9583 28.75 33.5714ZM36.6562 33.683L37.375 24.3973C37.4049 24.0104 37.2889 23.6644 37.0269 23.3594C36.7648 23.0543 36.4391 22.8869 36.0498 22.8571C35.6605 22.8274 35.3123 22.9427 35.0054 23.2031C34.6984 23.4635 34.5299 23.7872 34.5 24.1741L33.7812 33.4598C33.7513 33.8467 33.8674 34.1927 34.1294 34.4978C34.3914 34.8028 34.7171 34.9702 35.1064 35H35.2188C35.5931 35 35.9188 34.8735 36.1958 34.6205C36.4728 34.3676 36.6263 34.0551 36.6562 33.683ZM10.6914 6.51786L8.60254 15.7143H5.6377L7.90625 5.87054C8.19075 4.56101 8.8571 3.4933 9.90527 2.66741C10.9535 1.84152 12.1514 1.42857 13.499 1.42857H17.25C17.25 1.04167 17.3923 0.706845 17.6768 0.424107C17.9613 0.141369 18.2982 0 18.6875 0H27.3125C27.7018 0 28.0387 0.141369 28.3232 0.424107C28.6077 0.706845 28.75 1.04167 28.75 1.42857H32.501C33.8486 1.42857 35.0466 1.84152 36.0947 2.66741C37.1429 3.4933 37.8092 4.56101 38.0938 5.87054L40.3623 15.7143H37.3975L35.3086 6.51786C35.1439 5.8631 34.8032 5.32738 34.2866 4.91071C33.77 4.49405 33.1748 4.28571 32.501 4.28571H28.75C28.75 4.67262 28.6077 5.00744 28.3232 5.29018C28.0387 5.57292 27.7018 5.71429 27.3125 5.71429H18.6875C18.2982 5.71429 17.9613 5.57292 17.6768 5.29018C17.3923 5.00744 17.25 4.67262 17.25 4.28571H13.499C12.8252 4.28571 12.23 4.49405 11.7134 4.91071C11.1968 5.32738 10.8561 5.8631 10.6914 6.51786Z" fill="#FF0000"/>
</svg>
