<svg height="457pt" viewBox="-47 0 457 457.56171" width="457pt" xmlns="http://www.w3.org/2000/svg" xmlns:xlink="http://www.w3.org/1999/xlink"><linearGradient id="linear0" gradientUnits="userSpaceOnUse" x1="29.641776" x2="334.545776" y1="380.4" y2="75.496"><stop offset="0" stop-color="#fc3e81"/><stop offset="1" stop-color="#f80"/></linearGradient><path d="m94.71875 427.371094c1.796875-3.421875 6.027344-4.738282 9.445312-2.9375 5.929688 3.113281 12.042969 5.867187 18.300782 8.25 3.550781 1.414062 5.3125 5.417968 3.953125 8.992187s-5.332031 5.394531-8.929688 4.09375c-6.78125-2.589843-13.402343-5.585937-19.828125-8.96875-3.410156-1.792969-4.726562-6.011719-2.941406-9.429687zm132.769531-280.570313c-68.976562-24.304687-144.867187 9.964844-172.246093 77.78125-27.378907 67.816407 3.445312 145.167969 69.960937 175.570313 66.515625 30.398437 145.179687 3.082031 178.535156-62.003906 33.359375-65.082032 9.605469-144.890626-53.914062-181.140626-3.351563-1.878906-7.59375-.703124-9.5 2.632813-1.90625 3.339844-.765625 7.589844 2.558593 9.523437 56.648438 32.371094 77.8125 103.582032 48.03125 161.636719-29.777343 58.058594-99.957031 82.414063-159.300781 55.289063-59.339843-27.125-86.847656-96.132813-62.429687-156.640625 24.414062-60.507813 92.109375-91.101563 153.65625-69.445313 2.378906.914063 5.066406.464844 7.019531-1.175781 1.949219-1.640625 2.851563-4.210937 2.359375-6.710937s-2.300781-4.535157-4.730469-5.3125zm89.679688 7.386719c53.195312 59.191406 61.71875 146.09375 21.039062 214.492188-40.679687 68.398437-121.113281 102.394531-198.515625 83.910156-3.589844-1.042969-5.730468-4.71875-4.859375-8.355469.871094-3.632813 4.441407-5.945313 8.113281-5.246094 72.957032 17.550781 148.695313-15.480469 185.472657-80.890625 36.773437-65.410156 25.636719-147.285156-27.269531-200.496094-1.433594-1.449218-2.921876-2.859374-4.417969-4.257812-1.570313-1.46875-3.167969-2.90625-4.800781-4.3125-1.453126-1.253906-2.90625-2.503906-4.398438-3.710938-20.613281-16.726562-44.910156-28.308593-70.882812-33.785156-2.554688-.53125-5.125-1.003906-7.703126-1.417968-.214843-.039063-.421874-.082032-.640624-.117188-17.359376-2.722656-35.039063-2.722656-52.398438 0-.214844.035156-.425781.078125-.640625.117188-2.578125.414062-5.148437.886718-7.703125 1.417968-25.742188 5.429688-49.84375 16.859375-70.335938 33.355469-1.027343.824219-2.042968 1.65625-3.042968 2.492187-1.601563 1.339844-3.179688 2.691407-4.722656 4.089844-.21875.199219-.425782.398438-.648438.601563-37.40625 34.210937-57.332031 83.507812-54.207031 134.105469 3.128906 50.59375 28.976562 97.0625 70.3125 126.40625 3.148437 2.238281 3.886719 6.609374 1.644531 9.761718-2.238281 3.148438-6.609375 3.886719-9.761719 1.644532-42.640625-30.261719-70.171875-77.425782-75.554687-129.433594-5.382813-52.007813 11.90625-103.816406 47.445312-142.167969l-5.359375-5.355469-4.757812 4.761719c-1.3125 1.3125-3.09375 2.050781-4.949219 2.050781-1.859375 0-3.640625-.738281-4.953125-2.050781l-17.875-17.859375c-1.3125-1.3125-2.050781-3.09375-2.050781-4.953125 0-1.855469.738281-3.636719 2.050781-4.949219l8.179687-8.179687c2.734376-2.734375 7.167969-2.734375 9.902344 0s2.734375 7.167969 0 9.902343l-3.234375 3.230469 8 8 25.886719-25.886719-8-8-8.746094 8.746094c-2.734375 2.734375-7.164062 2.734375-9.898437 0s-2.734375-7.164062 0-9.898437l13.691406-13.695313c2.777344-2.628906 7.125-2.628906 9.898437 0l17.894532 17.890625c1.3125 1.3125 2.050781 3.09375 2.050781 4.949219s-.738281 3.636719-2.050781 4.949219l-4.761719 4.757812 7.023437 7.023438c18.703126-13.394531 39.789063-23.101563 62.125-28.601563v-26.105468h-30.679687c-3.867187 0-7-3.136719-7-7v-59.105469c-.003906-1.859375.734375-3.640625 2.046875-4.957031 1.3125-1.316407 3.09375-2.054688 4.953125-2.054688h148.078125c3.867188 0 7 3.132812 7 7v17.484375c0 3.867187-3.132812 7-7 7-3.863281 0-7-3.132813-7-7v-10.484375h-14.972656v45.117188h14.972656v-14.234376c0-3.863281 3.136719-7 7-7 3.867188 0 7 3.136719 7 7v21.238282c0 3.863281-3.132812 7-7 7h-30.679688v26.105468c23.144532 5.695313 44.9375 15.898438 64.128907 30.03125l8.449219-8.457031-4.765626-4.765625c-1.3125-1.3125-2.050781-3.09375-2.050781-4.949218 0-1.855469.738281-3.636719 2.050781-4.949219l17.894532-17.894531c1.308594-1.3125 3.089844-2.050782 4.949218-2.050782 1.855469 0 3.636719.738282 4.949219 2.050782l35.785157 35.785156c1.3125 1.3125 2.050781 3.09375 2.050781 4.949218 0 1.859376-.738281 3.640626-2.050781 4.953126l-17.898438 17.890624c-1.3125 1.3125-3.09375 2.050782-4.949219 2.050782s-3.636719-.738282-4.949219-2.050782l-4.761718-4.765624zm-9.050781-43.09375 25.882812 25.886719 8-8-25.882812-25.878907zm-4.480469 29.597656c.402343.347656.773437.691406 1.152343 1.042969.875.800781 1.785157 1.578125 2.640626 2.402344l6.960937-6.957031-6.460937-6.460938-7.28125 7.28125c1.039062.863281 2.007812 1.792969 3.007812 2.691406zm-83.453125-126.691406h-16.066406v45.117188h16.042968zm-30.066406 45.117188v-45.117188h-16v45.117188zm-30.039063 0v-45.117188h-16.023437v45.117188h16.0625zm-45.019531 0h14.976562v-45.117188h-14.957031zm38.273437 37.140624c1.289063-.207031 2.585938-.375 3.882813-.554687 1.480468-.203125 2.957031-.398437 4.441406-.566406 1.269531-.140625 2.539062-.273438 3.8125-.402344 1.6875-.15625 3.382812-.277344 5.070312-.398437 1.054688-.066407 2.109376-.144532 3.171876-.191407 2.800781-.128906 5.597656-.210937 8.398437-.210937s5.601563.082031 8.402344.210937c1.058593.046875 2.113281.128907 3.171875.191407 1.691406.109374 3.378906.230468 5.066406.398437 1.273438.117187 2.546875.253906 3.8125.402344 1.484375.167969 2.964844.363281 4.441406.566406 1.296875.179687 2.59375.347656 3.882813.554687l.59375.082032v-23.222656h-58.722657v23.226562zm-87.925781 40.140626-5.6875-5.691407-6.460938 6.460938 5.261719 5.273437c2.226563-2.050781 4.519531-4.066406 6.886719-6.042968zm116.710938 64.757812c3.867187 0 7-3.132812 7-7v-24.3125c0-3.867188-3.132813-7-7-7-3.867188 0-7 3.132812-7 7v24.3125c0 3.867188 3.132812 7 7 7zm-7 156.238281v24.3125c0 3.867188 3.132812 7 7 7 3.867187 0 7-3.132812 7-7v-24.316406c0-3.863281-3.132813-7-7-7-3.867188 0-7 3.136719-7 7zm-27.746094-155.792969-12.15625-21.058593c-1.945313-3.320313-6.207032-4.445313-9.539063-2.519531-3.332031 1.921874-4.488281 6.175781-2.585937 9.519531l12.15625 21.058593c1.242187 2.183594 3.558594 3.53125 6.070312 3.539063 2.511719.003906 4.832032-1.335937 6.085938-3.515625 1.25-2.175781 1.238281-4.859375-.03125-7.023438zm72.054687 138.796876c-3.351562 1.933593-4.496093 6.214843-2.5625 9.566406l12.15625 21.054687c1.945313 3.320313 6.203125 4.445313 9.535157 2.523438 3.335937-1.925781 4.488281-6.179688 2.585937-9.523438l-12.152344-21.058593c-1.933593-3.347657-6.214843-4.492188-9.5625-2.5625zm-104.507812-111.5-21.058594-12.15625c-2.167969-1.269532-4.851563-1.28125-7.027344-.03125-2.179687 1.253906-3.519531 3.574218-3.515625 6.085937.007813 2.511719 1.359375 4.828125 3.542969 6.070313l21.058594 12.15625c3.34375 1.902343 7.597656.746093 9.523437-2.585938 1.921875-3.332031.796875-7.589844-2.523437-9.539062zm134.398437 93.75 21.046875 12.152343c2.164063 1.269531 4.847657 1.28125 7.023438.03125 2.179687-1.253906 3.519531-3.574219 3.515625-6.085937-.007813-2.511719-1.355469-4.828125-3.539063-6.070313l-21.0625-12.15625c-3.34375-1.902343-7.597656-.746093-9.519531 2.585938-1.925781 3.332031-.800781 7.59375 2.519531 9.539062zm-141.820312-46.871094c0-3.867188-3.132813-7-7-7h-24.308594c-3.867188 0-7 3.132812-7 7 0 3.863281 3.132812 7 7 7h24.308594c3.867187 0 7-3.136719 7-7zm149.246094 0c0 3.863281 3.132812 7 7 7h24.3125c3.863281 0 7-3.136719 7-7 0-3.867188-3.136719-7-7-7h-24.316407c-3.867187 0-7 3.132812-7 7zm-166.359376 59.960937c1.226563.003907 2.429688-.320312 3.492188-.933593l21.042969-12.15625c2.183593-1.242188 3.535156-3.558594 3.539062-6.070313.007813-2.511719-1.335937-4.835937-3.511719-6.085937-2.179687-1.25-4.859374-1.238282-7.027343.03125l-21.042969 12.15625c-2.75 1.585937-4.085938 4.816406-3.265625 7.878906.824219 3.0625 3.601563 5.191406 6.773437 5.183594zm179.980469-118.996093-21.046875 12.15625c-3.316406 1.949218-4.445312 6.207031-2.519531 9.539062 1.921875 3.332031 6.175781 4.488281 9.519531 2.585938l21.0625-12.15625c3.320313-1.945313 4.445313-6.207032 2.519532-9.539063-1.921876-3.332031-6.175782-4.484375-9.519532-2.585937zm-125.554687 123.65625c-3.347656-1.929688-7.628906-.78125-9.5625 2.566406l-12.15625 21.035156c-1.902344 3.34375-.746094 7.597656 2.585937 9.523438 3.332031 1.921874 7.59375.796874 9.539063-2.523438l12.15625-21.054688c1.917968-3.34375.773437-7.613281-2.5625-9.546874zm93.773437-162.425782c-3.347656-1.933594-7.628906-.785156-9.5625 2.5625l-12.152343 21.066406c-1.902344 3.34375-.75 7.597657 2.582031 9.519532 3.335937 1.925781 7.59375.796875 9.539062-2.519532l12.15625-21.058593c.933594-1.609375 1.183594-3.519531.703125-5.316407-.480468-1.796874-1.65625-3.328124-3.265625-4.253906zm-3.5 90.800782h-45.964843v-39.890626c0-3.863281-3.132813-7-7-7-3.867188 0-7 3.136719-7 7v46.894532c0 3.863281 3.132812 7 7 7h52.964843c3.867188 0 7-3.136719 7-7 0-3.867188-3.132812-7-7-7zm0 0" fill="url(#linear0)"/></svg>