<?xml version="1.0" encoding="iso-8859-1"?>
<!-- Generator: Adobe Illustrator 19.0.0, SVG Export Plug-In . SVG Version: 6.00 Build 0)  -->
<svg version="1.1" id="Layer_1" xmlns="http://www.w3.org/2000/svg" xmlns:xlink="http://www.w3.org/1999/xlink" x="0px" y="0px"
	 viewBox="0 0 512 512" fill="#7CC832" style="enable-background:new 0 0 512 512;" xml:space="preserve">
<g>
	<g>
		<rect x="85.166" y="238.933" width="341.333" height="204.8"/>
	</g>
</g>
<g>
	<g>
		<path d="M435.033,501.76l-6.827-40.96H83.459l-6.827,40.96c0,2.56,0,5.12,1.707,6.827c1.707,2.56,4.267,3.413,6.827,3.413h341.333
			c2.56,0,5.12-0.853,6.827-3.413C435.033,506.88,435.886,504.32,435.033,501.76z"/>
	</g>
</g>
<g>
	<g>
		<path d="M417.966,102.4h-93.867V68.267C324.099,30.72,293.379,0,255.833,0s-68.267,30.72-68.267,68.267V102.4H93.699
			c-5.12,0-8.533,3.413-8.533,8.533v110.933h341.333V110.933C426.499,105.813,423.086,102.4,417.966,102.4z M204.633,68.267
			c0-28.16,23.04-51.2,51.2-51.2s51.2,23.04,51.2,51.2V102.4h-102.4V68.267z M196.099,204.8c-18.773,0-34.133-15.36-34.133-34.133
			c0-16.213,11.093-29.013,25.6-33.28v17.92c-5.12,2.56-8.533,8.533-8.533,14.507c0,9.387,7.68,17.067,17.067,17.067
			s17.067-7.68,17.067-17.067c0-5.973-3.413-11.947-8.533-14.507v-17.92c14.507,3.413,25.6,17.067,25.6,33.28
			C230.233,189.44,214.873,204.8,196.099,204.8z M315.566,204.8c-18.773,0-34.133-15.36-34.133-34.133
			c0-16.213,11.093-29.013,25.6-33.28v17.92c-5.12,2.56-8.533,8.533-8.533,14.507c0,9.387,7.68,17.067,17.067,17.067
			s17.067-7.68,17.067-17.067c0-5.973-3.413-11.947-8.533-14.507v-17.92c14.507,3.413,25.6,17.067,25.6,33.28
			C349.699,189.44,334.339,204.8,315.566,204.8z"/>
	</g>
</g>
<g>
</g>
<g>
</g>
<g>
</g>
<g>
</g>
<g>
</g>
<g>
</g>
<g>
</g>
<g>
</g>
<g>
</g>
<g>
</g>
<g>
</g>
<g>
</g>
<g>
</g>
<g>
</g>
<g>
</g>
</svg>
