<svg height="512" viewBox="0 0 56 56" width="512" xmlns="http://www.w3.org/2000/svg"><g id="Page-1" fill="none" fill-rule="evenodd"><g id="019---Sushi" fill="#7CC832" fill-rule="nonzero"><path id="Shape" d="m15 27c-3.252 0-6 1.832-6 4s2.748 4 6 4 6-1.832 6-4-2.748-4-6-4zm1 4h-2c-.5522847 0-1-.4477153-1-1s.4477153-1 1-1h2c.5522847 0 1 .4477153 1 1s-.4477153 1-1 1z"/><path id="Shape" d="m9 14.955v2.045c0 2.168 2.748 4 6 4s6-1.832 6-4v-2.045c-1.6983899 1.3640265-3.8220974 2.0878568-6 2.045-2.1779026.0428568-4.3016101-.6809735-6-2.045z"/><path id="Shape" d="m9 46c-3.86416566-.0044086-6.99559136-3.1358343-7-7v-30c.00440864-3.86416566 3.13583434-6.99559136 7-7h30c3.8641657.00440864 6.9955914 3.13583434 7 7v15.279l2 3.714v-18.993c-.0055111-4.96827817-4.0317218-8.99448887-9-9h-30c-4.96827817.00551113-8.99448887 4.03172183-9 9v30c.00551113 4.9682782 4.03172183 8.9944889 9 9h26.936l-.609-2z"/><path id="Shape" d="m15 7c-3.252 0-6 1.832-6 4s2.748 4 6 4 6-1.832 6-4-2.748-4-6-4zm1 4h-2c-.5522847 0-1-.4477153-1-1 0-.55228475.4477153-1 1-1h2c.5522847 0 1 .44771525 1 1 0 .5522847-.4477153 1-1 1z"/><path id="Shape" d="m9 34.955v2.045c0 2.168 2.748 4 6 4s6-1.832 6-4v-2.045c-1.6983899 1.3640265-3.8220974 2.0878568-6 2.045-2.1779026.0428568-4.3016101-.6809735-6-2.045z"/><path id="Shape" d="m33.075 5.231c1.1994584-.5527163 2.621991-.07926802 3.251 1.082l7.674 14.251v-11.564c-.0033061-2.76005315-2.2399468-4.99669388-5-5h-30c-2.76005315.00330612-4.99669388 2.23994685-5 5v30c.00330612 2.7600532 2.23994685 4.9966939 5 5h25.717l-9.609-31.532c-.4093221-1.2979172.2947401-2.68481602 1.5840798-3.12040376s2.6902464.24017297 3.1519202 1.52040376l12 32.234c1.3502206-.9289488 2.1565586-2.4630853 2.156-4.102v-4.2l-12.144-26.25c-.2785246-.60176974-.306566-1.28954138-.0779544-1.91198776.2286117-.62244638.6951463-1.1285705 1.2969544-1.40701224zm-10.075 31.769c0 3.309-3.589 6-8 6s-8-2.691-8-6v-6c0-3.309 3.589-6 8-6s8 2.691 8 6zm0-20c0 3.309-3.589 6-8 6s-8-2.691-8-6v-6c0-3.309 3.589-6 8-6s8 2.691 8 6z"/><path id="Shape" d="m42.56 45.025.7 1.9c1.9163702-1.0271525 3.3899277-2.7209255 4.142-4.761l-1.41-3.064c-.0287883 2.4393749-1.3303159 4.6863304-3.432 5.925z"/><path id="Shape" d="m55.777 46.657-21.211-39.392c-.087125-.16362449-.2576264-.26561741-.443-.265-.2092688.0006218-.3960121.1315017-.468.328-.0454837.12442481-.0397292.26181447.016.382l18.838 40.706c.3069165.5973079.9125496.9822353 1.5836561 1.0065376.6711064.0243023 1.302995-.3158115 1.6523107-.8893558.3493157-.5735442.3615661-1.2910472.0320332-1.8761818z"/><path id="Shape" d="m40.389 44.929-12.419-33.365c-.073232-.1960035-.2607637-.3256797-.47-.325-.0491679-.0000436-.0980578.0073742-.145.022-.1271562.0385471-.2337403.126121-.296219.2433857-.0624786.1172647-.075713.2545754-.036781.3816143l13.078 42.901c.2161818.6398414.7630324 1.1116292 1.4276511 1.2316862.6646186.120057 1.3419702-.1305903 1.7683472-.6543596.426377-.5237694.5343955-1.2378851.2820017-1.8643266z"/></g></g></svg>